<?xml version="1.0" standalone="no"?>
<!DOCTYPE svg PUBLIC "-//W3C//DTD SVG 20010904//EN"
 "http://www.w3.org/TR/2001/REC-SVG-20010904/DTD/svg10.dtd">
<svg version="1.0" xmlns="http://www.w3.org/2000/svg"
 width="1840.000000pt" height="1840.000000pt" viewBox="0 0 1840.000000 1840.000000"
 preserveAspectRatio="xMidYMid meet">
<metadata>
Created by potrace 1.14, written by Peter Selinger 2001-2017
</metadata>
<g transform="translate(0.000000,1840.000000) scale(0.100000,-0.100000)"
fill="#000000" stroke="none">
<path d="M6824 12072 l-51 -3 -1 -237 c-1 -130 1 -248 4 -262 l4 -25 2423 5
c1332 3 2422 6 2422 8 0 185 -5 506 -9 509 -5 5 -4710 10 -4792 5z"/>
<path d="M621 12055 c-9 -11 -11 -494 -2 -496 3 -1 485 -2 1071 -4 586 -2
1083 -6 1105 -8 22 -3 65 -8 95 -12 70 -7 227 -40 316 -65 38 -11 76 -22 84
-24 58 -14 236 -89 345 -144 110 -56 351 -207 390 -246 7 -6 32 -27 56 -46 62
-50 247 -235 299 -300 25 -30 51 -61 58 -68 24 -26 180 -268 217 -337 81 -153
151 -335 196 -506 28 -107 34 -135 43 -200 4 -25 8 -57 11 -70 14 -90 19 -166
19 -324 -1 -185 -5 -249 -29 -401 -6 -39 -40 -194 -50 -224 -2 -8 -10 -38 -18
-65 -8 -28 -19 -61 -26 -73 -6 -12 -10 -22 -7 -22 5 0 -59 -159 -95 -235 -52
-110 -182 -325 -244 -403 -162 -205 -334 -372 -508 -494 -45 -32 -86 -61 -92
-66 -10 -8 -64 -40 -123 -73 -68 -39 -137 -73 -144 -71 -5 1 -8 -3 -8 -8 0 -6
-9 -10 -20 -10 -11 0 -20 -4 -20 -8 0 -4 -10 -8 -22 -9 -11 -1 -24 -6 -27 -11
-5 -8 -220 -88 -263 -98 -10 -2 -26 -6 -35 -8 -97 -24 -250 -55 -298 -61 -33
-3 -76 -9 -95 -12 -19 -3 -519 -7 -1110 -8 l-1075 -1 -1 -251 c-1 -247 -1
-251 20 -255 39 -7 2091 -1 2166 6 117 12 143 14 175 20 17 2 50 8 75 11 25 4
54 9 65 12 36 7 59 12 85 17 30 6 125 31 200 53 30 10 58 18 63 19 4 1 9 3 12
4 3 1 9 3 14 4 5 0 13 4 17 9 4 4 14 7 23 7 9 1 34 9 56 20 22 11 48 19 58 20
9 0 17 4 17 8 0 5 6 9 13 9 7 0 36 11 65 26 28 14 52 23 52 19 0 -4 4 -2 8 3
4 6 46 30 94 54 73 36 257 145 293 173 6 4 48 36 95 70 86 64 95 71 179 143
104 90 321 316 321 336 0 5 4 9 8 9 15 0 197 255 237 333 11 21 29 48 40 60
11 12 19 23 17 25 -2 1 21 51 51 110 65 130 172 396 183 457 1 6 11 42 22 80
21 72 40 158 48 210 2 17 6 41 9 55 3 14 8 43 11 65 3 22 7 51 10 65 28 159
21 603 -12 780 -3 19 -8 46 -10 60 -4 27 -17 92 -19 100 -1 3 -7 32 -14 65
-16 79 -90 317 -102 329 -5 6 -9 18 -9 28 0 10 -4 26 -9 36 -5 9 -13 28 -19
42 -6 14 -35 78 -66 142 -31 65 -56 122 -56 127 0 5 -4 11 -8 13 -4 2 -23 30
-41 63 -34 60 -157 250 -176 271 -5 6 -23 29 -40 50 -95 122 -274 312 -381
404 -267 231 -575 412 -914 537 -52 19 -102 37 -110 39 -8 2 -31 8 -50 13 -77
22 -171 45 -225 56 -14 3 -36 7 -50 10 -64 13 -78 15 -195 31 -109 14 -324 17
-1238 18 -693 1 -1046 -2 -1051 -9z"/>
<path d="M15717 12064 c-1 -1 -45 -5 -97 -8 -117 -9 -144 -11 -195 -20 -22 -4
-54 -8 -72 -11 -18 -2 -40 -6 -50 -9 -10 -3 -36 -7 -58 -11 -22 -3 -60 -12
-85 -19 -25 -7 -48 -14 -52 -15 -5 0 -9 -1 -10 -2 -2 0 -10 -2 -18 -4 -48 -9
-209 -63 -295 -97 -129 -52 -341 -153 -350 -167 -3 -6 -11 -9 -16 -6 -5 4 -9
2 -9 -3 0 -4 -16 -16 -35 -25 -60 -29 -226 -142 -337 -232 -124 -99 -286 -255
-386 -372 -83 -97 -222 -286 -222 -302 0 -6 -4 -11 -8 -11 -5 0 -14 -10 -20
-22 -7 -13 -28 -50 -47 -83 -37 -62 -98 -176 -100 -185 0 -3 -15 -33 -32 -67
-18 -35 -29 -63 -26 -63 3 0 1 -6 -4 -12 -23 -29 -107 -268 -95 -268 4 0 2 -4
-4 -8 -11 -8 -43 -128 -78 -287 -2 -11 -9 -56 -16 -100 -7 -44 -14 -88 -16
-98 -23 -122 -23 -545 0 -707 2 -14 7 -47 11 -75 7 -50 29 -170 40 -212 3 -13
7 -31 9 -41 2 -9 9 -37 16 -62 7 -25 13 -49 14 -55 1 -5 5 -16 10 -23 4 -7 5
-16 2 -19 -3 -3 -2 -11 3 -17 4 -6 16 -36 26 -66 41 -128 128 -325 205 -465
51 -92 151 -250 161 -253 5 -2 9 -8 9 -13 0 -10 98 -139 146 -191 19 -21 32
-38 30 -38 -11 0 241 -248 304 -300 36 -29 67 -56 70 -59 24 -30 355 -250 370
-247 3 0 19 -9 35 -21 39 -27 178 -95 275 -134 41 -17 84 -35 95 -40 22 -9
101 -37 125 -44 8 -2 60 -17 116 -34 55 -16 116 -32 135 -36 19 -3 43 -8 54
-10 11 -2 45 -8 75 -14 30 -6 73 -13 95 -16 22 -2 51 -7 64 -10 74 -15 327
-19 1266 -19 l1040 -1 1 248 c1 155 -3 250 -9 254 -5 3 -490 7 -1076 9 -586 2
-1086 5 -1111 8 -25 3 -62 8 -82 10 -32 3 -78 11 -123 21 -5 2 -26 5 -45 9
-19 3 -56 12 -82 20 -27 8 -48 12 -48 9 0 -3 -7 0 -15 7 -8 7 -15 10 -15 6 0
-3 -12 -1 -27 5 -16 6 -35 12 -43 14 -81 17 -333 129 -445 197 -16 10 -37 21
-45 25 -29 13 -206 136 -275 191 -97 77 -287 270 -366 372 -170 218 -303 462
-382 700 -28 85 -63 210 -72 255 -43 225 -49 288 -49 510 1 225 4 256 50 500
3 16 13 61 19 85 21 85 72 233 107 315 32 74 115 243 128 260 4 6 20 33 36 60
31 56 138 207 199 282 51 62 247 257 309 307 76 62 179 137 204 149 12 5 22
13 22 16 0 4 17 15 38 26 20 11 39 22 42 25 12 12 246 131 264 134 6 1 17 5
24 9 12 8 190 73 222 82 8 2 49 13 90 25 41 11 91 23 110 26 19 3 42 7 50 9
27 8 129 22 235 32 39 4 538 7 1110 7 572 1 1043 5 1046 9 3 4 5 119 5 255
l-1 247 -1033 0 c-569 0 -1034 -1 -1035 -1z"/>
<path d="M6835 9460 l-60 -5 -1 -257 -2 -258 27 -1 c14 0 34 -2 44 -4 9 -2 17
1 17 6 0 6 5 7 11 3 16 -9 109 -11 109 -1 0 5 5 5 11 2 15 -10 1109 -12 1109
-2 0 5 5 5 10 2 16 -10 630 -11 630 -2 0 5 5 5 11 2 15 -10 1109 -11 1109 -2
0 5 5 5 10 2 16 -10 470 -11 470 -2 0 5 5 5 10 2 16 -10 470 -11 470 -2 0 5 5
5 11 1 13 -8 778 -9 786 -1 6 7 7 507 0 513 -7 7 -4705 10 -4782 4z"/>
<path d="M6777 6843 c-3 -5 -5 -119 -6 -255 0 -175 3 -249 11 -254 14 -9 4825
-10 4834 -1 4 4 8 426 5 505 -1 9 -492 12 -2420 12 -1331 0 -2422 -3 -2424 -7z"/>
</g>
</svg>
